<?xml version="1.0" encoding="utf-8"?>
<svg width="400px" height="150px" viewBox="-27 -40 500 500" xmlns="http://www.w3.org/2000/svg">
  <defs>
    <pattern id="pattern-0" x="0" y="0" width="20" height="20" patternUnits="userSpaceOnUse" viewBox="0 0 100 100">
      <path d="M 0 0 L 50 0 L 50 100 L 0 100 Z" style="fill: black;"/>
    </pattern>
    <style id="bx-google-fonts">@import url(https://fonts.googleapis.com/css?family=Artifika:400);</style>
  </defs>
  <path d="M -181.944 262.607 C -160.535 262.607 -149.588 271.153 -133.785 280.837 C -98.749 302.309 -63.877 349.89 -88.458 382.112 C -100.234 397.548 -114.512 423.902 -135.201 433.765 C -137.573 434.894 -146.131 445.19 -146.533 444.903 C -151.424 441.407 -122.626 428.517 -119.62 426.674 C -101.342 415.472 -73.225 410.016 -48.798 413.507 C -44.294 414.152 -21.886 422.624 -21.886 422.624 C -43.13 354.681 -26.231 351.439 -11.97 344.639 C -10.289 343.838 6.444 340.59 6.444 340.59 C 6.444 340.59 13.161 347.418 14.942 348.692 C 20.227 352.47 27.783 364.764 23.439 370.972 C 16.924 380.291 -4.754 386.07 -11.97 391.229 C -14.038 392.707 -21.886 397.305 -21.886 397.305" style="stroke-linecap: round; fill: none; fill-rule: evenodd; stroke: rgb(67, 37, 216);"/>
  <path d="M -54.567 425.869 C -22.413 425.869 10.935 423.963 42.378 428.071 C 58.785 430.217 76.557 425.929 92.96 428.071 C 105.396 429.696 122.318 433.581 132.302 433.581 C 132.302 433.581 124.152 425.137 123.87 424.767 C 114.918 413.072 106.991 399.03 99.986 386.214 C 90.819 369.448 86.572 347.758 74.695 332.24 C 54.447 305.779 38.409 274.355 31.139 243.014 C 25.404 218.287 32.333 192.762 43.787 170.316 C 47.342 163.347 56.276 157.871 63.456 155.997 C 63.949 155.867 71.886 150.487 71.886 150.487 C 71.886 150.487 52.141 161.823 50.808 162.605 C 27.787 176.143 3.212 185.668 -22.25 195.65 C -28.611 198.144 -39.833 203.36 -46.136 203.36 C -46.493 203.36 -51.758 203.36 -51.758 203.36 C -50.353 203.36 -42.143 206.491 -41.924 206.664 C -36.341 211.041 -29.553 215.705 -25.064 220.986 C -13.126 235.019 -12.415 250.945 -12.415 268.35 C -12.415 275.037 -11.788 284.076 -19.442 287.077 C -25.308 289.377 -39.888 293.482 -47.541 291.484 C -57.875 288.781 -69.792 271.294 -64.404 262.843 C -57.805 252.501 -44.687 248.49 -34.896 240.813 C -33.663 239.847 -27.873 232.001 -27.873 232.001" style="stroke-linecap: round; fill: none; fill-rule: evenodd; stroke: rgb(67, 37, 216);"/>
  <path d="M -19.052 203.867 C -19.052 202.855 -19.052 199.306 -19.052 198.801 C -19.053 191.733 -57.674 201.929 -61.545 202.855 C -94.713 210.759 -123.688 230.527 -153.616 243.365 C -159.716 245.98 -173.633 256.529 -179.113 256.529" style="stroke-linecap: round; fill: none; fill-rule: evenodd; stroke: rgb(67, 37, 216);"/>
  <path d="M 70.48 148.286 C 70.48 149.386 70.48 156.501 70.48 157.096 C 70.48 166.276 70.48 175.457 70.48 184.635 C 70.48 214.241 80.294 247.028 99.986 272.758 C 115.001 292.375 135.748 310.426 154.781 327.832 C 162.867 335.228 168.85 344.807 178.668 350.966 C 189.86 357.985 203.121 367.055 210.983 376.3 C 212.388 377.954 219.412 380.373 219.412 382.909 C 219.412 389.251 212.082 386.455 206.767 390.621 C 194.022 400.61 165.7 410.572 151.971 415.956 C 150.639 416.477 136.516 424.767 136.516 424.767" style="stroke-linecap: round; fill: none; fill-rule: evenodd; stroke: rgb(67, 37, 216);"/>
  <path d="M 122.466 216.468 C 122.466 244.648 133.706 272.159 133.706 299.927 C 133.706 301.509 133.706 325.521 133.706 325.521 L 133.706 324.409" style="stroke-linecap: round; fill: none; fill-rule: evenodd; stroke: rgb(67, 37, 216);"/>
  <path d="M 8.658 175.822 C 8.658 162.766 7.315 153.885 0.23 142.777 C -1.224 140.504 -5.036 133.965 -9.608 133.965 C -9.608 133.965 -12.415 131.761 -12.415 131.761 C -12.415 131.761 7.956 139.747 10.066 140.575 C 36.339 150.875 63.82 159.245 91.555 167.012 C 124.379 176.201 158.813 181.806 192.718 187.938 C 205.031 190.168 216.565 194.407 229.249 195.65 C 270.718 199.714 309.664 185.737 348.675 185.737 C 348.675 185.737 337.276 192.594 336.03 194.551 C 327.363 208.137 318.292 221.951 312.145 236.407 C 311.474 237.984 307.931 259.538 307.931 259.538 C 307.931 259.538 304.022 246.184 303.713 245.219 C 300.591 235.417 286.901 224.308 275.615 219.883 C 261.383 214.305 241.779 218.447 227.843 222.087 C 225.928 222.587 223.63 230.898 223.63 230.898 C 222.22 230.898 219.718 238.127 219.412 238.612 C 214.684 246.026 207.284 256.125 203.957 263.945 C 197.017 280.274 198.336 302.885 198.336 320.124 C 198.336 325.768 195.999 335.55 198.336 341.053 C 199.364 343.465 202.552 346.17 202.552 347.661" style="stroke-linecap: round; fill: none; fill-rule: evenodd; stroke: rgb(67, 37, 216);"/>
  <path d="M 66.265 215.354 C 66.265 215.354 79.469 215.354 80.316 215.354 C 83.637 215.354 109.453 215.064 111.224 216.468 C 111.61 216.77 114.036 220.916 114.036 220.916" style="stroke-linecap: round; fill: none; fill-rule: evenodd; stroke: rgb(67, 37, 216);"/>
  <path d="M 257.349 216.468 C 255.337 216.468 253.043 223.282 251.73 225.368 C 244.883 236.214 246.264 249.233 243.297 260.978 C 235.07 293.565 231.055 341.737 250.324 372.258 C 256.014 381.272 268.146 401.192 282.638 401.192 C 252.139 401.192 211.28 407.048 182.882 414.546 C 181.101 415.014 157.592 423.45 157.592 423.45" style="stroke-linecap: round; fill: none; fill-rule: evenodd; stroke: rgb(67, 37, 216);"/>
  <path d="M 390.828 183.083 L 392.231 183.083 Z" style="stroke-linecap: round; fill: none; fill-rule: evenodd; stroke: rgb(67, 37, 216);"/>
  <path d="M 313.549 252.078 C 313.549 252.078 321.982 247.625 323.386 247.625 C 334.702 247.625 346.253 248.737 357.105 248.737 C 357.409 248.737 366.939 249.851 366.939 249.851 C 366.939 249.851 357.105 236.164 357.105 232.045 C 357.105 215.264 367.123 183.083 392.231 183.083 C 390.828 183.083 383.089 183.083 382.396 183.083 C 378.505 183.083 354.295 184.195 354.295 184.195" style="stroke-linecap: round; fill: none; fill-rule: evenodd; stroke: rgb(67, 37, 216);"/>
  <path d="M 250.324 268.767 C 258.408 268.767 267.224 267.67 272.805 269.88 C 299.305 280.375 288.924 314.98 272.805 327.747 C 270.578 329.509 251.73 350.005 251.73 350.005" style="stroke-linecap: round; fill: none; fill-rule: evenodd; stroke: rgb(67, 37, 216);"/>
  <path d="M 226.439 405.644 C 226.439 414.043 225.35 420.72 220.815 427.898 C 218.326 431.847 213.794 433.159 213.794 436.802 C 231.264 406.901 285.529 408.982 317.763 408.982 C 328.181 408.982 338.711 410.095 348.675 410.095 C 351.522 410.095 357.105 411.206 357.105 411.206 C 351.948 411.206 343.746 405.078 340.244 402.304 C 326.486 391.408 317.657 380.649 307.931 367.808 C 306.237 365.575 298.291 353.185 302.307 350.005 C 316.768 338.553 336.888 328.632 357.105 323.295 C 362.177 321.959 379.331 327.95 373.963 332.198 C 367.001 337.714 362.482 344.631 355.7 350.005 C 355.552 350.12 348.675 358.906 348.675 358.906 C 348.675 360.019 344.462 366.694 344.462 366.694 C 360.484 352.89 382.809 362.245 402.065 362.245 C 403.248 362.245 424.546 363.355 424.546 363.355 C 423.138 363.355 411.541 351.383 410.494 350.005 C 403.066 340.194 378.034 316.851 386.612 303.266 C 396.857 287.036 423.818 292.672 434.38 301.04 C 447.733 311.616 410.494 333.261 410.494 341.101" style="stroke-linecap: round; fill: none; fill-rule: evenodd; stroke: rgb(67, 37, 216);"/>
  <path d="M 395.041 365.585 C 395.041 366.694 393.637 384.501 393.637 384.501 C 393.637 384.501 403.977 383.386 406.282 383.386 C 419.394 383.386 432.509 383.386 445.622 383.386 C 445.876 383.386 459.671 383.386 459.671 383.386 C 459.671 378.126 453.74 370.541 452.645 364.47 C 447.124 333.836 450.996 296.448 458.265 267.658 C 461.701 254.059 470.072 240.051 476.533 229.819 C 476.922 229.203 484.964 220.916 484.964 220.916 C 484.964 220.916 472.32 223.094 472.32 223.142 C 472.32 225.149 462.685 225.368 459.671 225.368 C 449.375 225.368 439.053 229.201 428.764 226.482 C 426.961 226.004 409.09 220.916 409.09 220.916 C 409.09 220.916 409.352 230.725 409.09 230.933 C 408.439 231.448 398.555 253.746 390.828 247.625 C 385.465 243.379 385.62 239.052 380.992 235.384 C 377.581 232.684 383.801 226.357 383.801 225.368 C 383.801 220.381 407.662 209.061 414.711 205.339 C 416.242 204.531 428.764 196.437 428.764 196.437 C 427.358 196.437 411.569 197.264 410.494 197.549 C 400.904 200.081 386.214 205.339 375.369 205.339 C 373.188 205.339 368.35 208.679 368.35 208.679" style="stroke-linecap: round; fill: none; fill-rule: evenodd; stroke: rgb(67, 37, 216);"/>
  <path d="M 486.369 219.804 C 486.369 219.804 514.468 216.468 514.468 216.468 C 514.468 216.468 500.417 227.245 500.417 228.706 C 500.417 242.82 490.621 257.8 494.795 274.333 C 501.618 301.34 518.783 332.305 539.758 354.454 C 542.638 357.495 560.832 376.711 560.832 376.711 C 515.222 374.486 483.341 371.315 477.936 375.597 C 477.178 376.197 465.292 380.048 465.292 380.048" style="stroke-linecap: round; fill: none; fill-rule: evenodd; stroke: rgb(67, 37, 216);"/>
  <path d="M 411.899 289.913 C 391.449 306.111 419.206 323.069 431.573 337.763 C 434.592 341.35 444.217 344.804 444.217 346.665 C 442.812 346.665 434.992 348.408 434.38 348.891 C 433.951 349.229 423.138 357.792 423.138 357.792" style="stroke-linecap: round; fill: none; fill-rule: evenodd; stroke: rgb(67, 37, 216);"/>
  <path d="M 357.105 326.633 C 355.057 326.633 347.127 325.636 345.867 326.633 C 335.727 334.664 337.942 362.289 347.27 373.371 C 349.069 375.509 351.655 381.228 354.295 382.274 C 357.315 383.471 383.801 394.515 383.801 394.515 C 382.396 394.515 371.649 397.659 371.157 397.854 C 367.843 399.166 354.295 408.951 354.295 410.095" style="stroke-linecap: round; fill: none; fill-rule: evenodd; stroke: rgb(67, 37, 216);"/>
  <path d="M 497.608 250.963 C 499.014 250.963 516.35 255.295 518.681 256.528 C 529.708 262.352 534.764 274.706 538.352 283.237 C 543.518 295.502 528.981 302.532 524.305 309.942 C 523.339 311.467 514.468 319.957 514.468 319.957 L 514.468 319.957" style="stroke-linecap: round; fill: none; fill-rule: evenodd; stroke: rgb(67, 37, 216);"/>
  <path d="M 522.899 329.973 C 531.255 329.973 549.333 323.398 558.024 319.957 C 573.971 313.644 586.608 326.633 598.769 326.633 C 598.769 325.361 594.217 322.339 593.15 321.069 C 589.181 316.356 583.631 297.199 587.527 291.026 C 592.497 283.154 607.059 282.157 615.628 279.895 C 615.875 279.832 625.463 278.784 625.463 278.784 C 609.644 278.784 591.275 277.298 579.1 282.122 C 575.82 283.421 567.86 288.131 567.86 289.913 C 567.86 291.485 563.644 294.824 563.644 293.25 C 563.644 279.061 551.101 260.735 558.024 244.286 C 561.187 236.771 573.987 230.531 579.1 226.482 C 579.44 226.214 587.527 220.916 587.527 220.916 C 587.527 220.916 569.21 222.608 567.86 223.142 C 554.65 228.374 538.251 230.417 525.709 235.384 C 523.755 236.157 516.873 239.834 515.874 239.834 C 514.605 239.834 504.632 242.06 504.632 242.06 L 504.632 242.06" style="stroke-linecap: round; fill: none; fill-rule: evenodd; stroke: rgb(67, 37, 216);"/>
  <path d="M 588.933 220.916 C 587.527 220.916 588.257 232.581 587.527 233.158 C 583.995 235.958 573.48 253.167 573.48 256.528 C 573.48 257.508 572.074 268.767 572.074 268.767 C 573.48 268.767 574.885 269.88 574.885 269.88" style="stroke-linecap: round; fill: none; fill-rule: evenodd; stroke: rgb(67, 37, 216);"/>
  <path d="M 626.869 278.784 C 626.869 278.784 620.772 286.584 619.847 287.683 C 615.06 293.372 608.175 308.146 612.818 315.505 C 613.477 316.548 619.993 324.409 622.655 324.409 C 624.142 324.409 629.681 322.183 629.681 322.183 C 621.882 322.183 591.746 322.183 591.746 322.183 L 591.746 323.295" style="stroke-linecap: round; fill: none; fill-rule: evenodd; stroke: rgb(67, 37, 216);"/>
  <text x="32.604" y="58.348" transform="matrix(3.364848, 0, 0, 1.509155, -302.585937, -40.574352)" style="fill: rgb(220, 8, 8); font-family: Artifika; font-size: 36px; white-space: pre;">LOVE HTML</text>
  <text x="28.313" y="100.54" style="fill: rgb(226, 11, 11); font-family: Artifika; font-size: 36px; white-space: pre;" transform="matrix(1.75384, 0, 0, 1.346277, -227.838364, -37.875286)">LOVE CSS</text>
  <path d="M -22.25 237.608 C -22.25 237.608 -26.467 238.707 -26.467 239.834 C -26.467 244.796 -34.896 256.528 -34.896 256.528 C -34.896 256.528 -40.252 264.526 -37.704 266.543 C -36.068 267.837 -27.873 281.01 -27.873 281.01" style="fill: none; stroke: rgb(67, 37, 216);"/>
  <path d="M 10.066 334.424 C 10.066 334.673 2.549 341.487 0.23 343.327 C -1.824 344.952 0.145 350.139 -1.176 352.228 C -3.855 356.473 -8.978 371.028 -5.391 376.711 C -1.372 383.077 0.461 388.024 5.85 392.289 C 6.074 392.467 11.47 395.629 11.47 395.629 C 11.47 395.629 14.279 394.998 14.279 396.741 C 14.279 394.58 3.06 395.613 1.634 396.741 C -2.645 400.133 -8.577 403.714 -12.415 406.756 C -13.211 407.386 -15.227 416.772 -15.227 416.772" style="fill: none; stroke: rgb(67, 37, 216);"/>
  <path d="M 119.913 393.054 L 119.913 393.054 Z" style="fill: none; stroke: rgb(224, 16, 16);"/>
  <path d="M 260.58 460.298 Z" style="fill: none; stroke: rgb(224, 16, 16);"/>
  <path d="M -254.158 47.912 Z" style="fill: none; stroke: rgb(224, 16, 16);"/>
  <path d="M 76.15 402.775 Z" style="stroke: black; fill: none;"/>
  <path d="M 135.543 465.97 Z" style="stroke: black; fill: none;"/>
  <path d="M 176.18 478.123 Z" style="stroke: black; fill: none;"/>
</svg>