<?xml version="1.0" encoding="utf-8"?>
<svg width="400px" height="150px" viewBox="46 80 392 342" xmlns="http://www.w3.org/2000/svg">
  <defs>
    <style id="bx-google-fonts">@import url(https://fonts.googleapis.com/css?family=Roboto:100,100italic,300,300italic,400,400italic,500,500italic,700,700italic,900,900italic);</style>
  </defs>
  <text x="73.682" y="188.35" transform="matrix(1.796263, 0, 0, 1.102302, -169.269699, -58.710304)" style="fill: rgb(29, 67, 162); font-size: 36px; white-space: pre;">PYTHON IS GREAT</text>
  <path d="M 312.908 335.044 Z" style="stroke: black; fill: none;"/>
  <path d="M 441.627 492.797 Z" style="stroke: black; fill: none;"/>
  <path d="M 667.126 28.248 Z" style="stroke: black; fill: none;"/>
  <text x="69.922" y="119.309" transform="matrix(1.599628, 0, 0, 0.961371, -120.543541, 4.788348)" style="fill: rgb(179, 48, 48); fill-rule: evenodd; font-size: 36px; white-space: pre;"> </text>
  <path d="M 81.073 203.064 C 89.667 203.064 98.541 202.036 106.509 203.554 C 116.796 205.513 126.826 211.643 136.346 215.782 C 145.681 219.841 155.074 225.303 163.249 231.434 C 173.552 239.162 184.936 248.006 191.619 259.315 C 197.633 269.493 199.286 286.121 194.554 296.979 C 192.009 302.816 184.4 310.728 180.369 315.077 C 158.367 338.816 133.753 358.354 107.976 377.687 C 94.012 388.16 80.366 399.006 66.399 409.481 C 63.573 411.6 60.922 413.711 58.084 415.84 C 56.784 416.814 55.47 417.8 54.171 418.775 C 53.802 419.051 52.731 419.753 53.192 419.753 C 53.891 419.753 54.171 421.562 54.171 422.199" style="stroke: black; fill: none;"/>
  <path d="M 91.834 198.662 C 105.912 198.662 119.369 194.514 132.922 193.282 C 159.127 190.899 185.89 192.303 212.163 192.303 C 242.508 192.303 273.38 190.674 303.631 193.282 C 321.783 194.846 340.268 198.033 357.437 204.043 C 362.245 205.725 374.254 208.329 377.002 213.825 C 378.38 216.582 370.807 219.605 370.643 219.695 C 365.455 222.549 360.256 225.287 354.991 228.01 C 336.348 237.654 318.198 248.521 300.207 259.315 C 299.199 259.92 298.312 260.722 297.273 261.272 C 295.551 262.184 284.555 268.609 284.555 268.609 C 269.608 265.619 273.649 290.879 275.751 298.446 C 280.81 316.662 295.338 328.71 312.925 334.154 C 322.841 337.223 335.521 336.9 345.697 337.088 C 364.709 337.44 383.067 336.177 401.948 334.154 C 428.525 331.306 454.979 331.219 481.678 331.219 C 494.228 331.219 506.517 331.422 518.852 333.664 C 519.283 333.743 528.146 335.621 528.146 335.621 C 528.146 335.621 525.211 335.621 523.744 335.621 C 518.582 335.621 513.206 336.061 508.091 336.599 C 483.542 339.183 459.454 345.819 435.21 350.295 C 384.224 359.708 333.805 372.893 282.599 381.111 C 245.898 387.001 208.781 389.814 172.053 395.296 C 149.035 398.731 125.686 402.852 103.085 408.503 C 99.889 409.301 84.986 411.82 84.986 414.372" style="stroke: black; fill: none;"/>
  <path d="M 214.608 225.565 C 233.366 225.565 251.403 220.673 269.881 220.673 C 274.915 220.673 284.653 218.423 287.49 224.097 C 288.963 227.044 284.847 229.592 283.088 230.945 C 275.926 236.454 268.302 240.501 260.587 245.13 C 258.054 246.65 255.205 247.903 252.761 249.533 C 252.328 249.821 252.272 251.978 252.272 251.978" style="stroke: black; fill: none;"/>
  <path d="M 302.164 260.783 C 302.164 279.118 330.807 284.43 344.23 285.729 C 366.687 287.902 389.154 289.068 411.731 287.685 C 432.437 286.418 453.629 279.462 473.852 274.968 C 486.477 272.162 498.817 268.766 511.026 264.696 C 511.522 264.53 518.852 259.805 518.852 259.805 C 516.456 262.201 516.289 271.133 515.918 274.479 C 514.295 289.083 512.293 302.047 515.918 316.545 C 516.697 319.66 517.874 324.206 517.874 327.306 C 517.874 328.18 518.363 333.664 518.363 333.664" style="stroke: black; fill: none;"/>
  <path d="M 218.032 229.478 C 218.521 229.478 226.838 228.991 227.326 229.967 C 230.071 235.457 231.728 243.134 231.728 249.533" style="stroke: black; fill: none;"/>
  <path d="M 239.065 226.543 C 240.978 226.543 242.856 226.054 243.957 226.054 C 245.098 226.054 245.154 228.449 245.424 228.989 C 247.303 232.747 246.126 240.898 243.957 244.152 C 243.654 244.606 240.533 250.511 240.533 250.511" style="stroke: black; fill: none;"/>
  <path d="M 376.513 242.196 L 376.513 242.196 Z" style="stroke: black; fill: none;"/>
</svg>