<?xml version="1.0" encoding="utf-8"?>
<svg width="400px" height="150px" viewBox="0 0 500 500" xmlns="http://www.w3.org/2000/svg">
  <defs>
    <style id="bx-google-fonts">@import url(https://fonts.googleapis.com/css?family=Artifika:400);</style>
  </defs>
  <path d="M -218.02 266.083 C -217.072 266.083 -206.741 270.541 -205.711 271.335 C -199.328 276.252 -193.254 283.358 -188.669 289.716 C -172.077 312.726 -156.923 338.645 -154.584 366.747 C -152.82 387.949 -154.247 418.08 -171.626 434.148 C -174.291 436.611 -179.823 438.225 -182.041 440.275 C -184.515 442.561 -193.363 438.487 -196.244 441.15 C -197.708 442.504 -206.658 447.278 -206.658 447.278" style="fill: none; stroke: rgb(165, 20, 187);"/>
  <path d="M -221.807 257.329 C -206.405 242.215 -180.419 241.813 -160.264 238.947 C -134.907 235.341 -101.772 225.113 -76.001 231.069 C -66.298 233.311 -56.203 238.903 -47.596 243.324 C -36.801 248.869 -23.077 253.969 -16.351 264.332 C 4.468 296.413 -28.504 327.722 -58.011 341.361 C -60.753 342.628 -70.829 335.661 -75.053 334.359 C -75.137 334.333 -83.575 333.28 -83.575 333.483 C -83.575 337.251 -81.545 339.363 -80.733 343.112 C -80.076 346.156 -79.253 348.931 -77.894 351.866 C -75.897 356.172 -72.917 360.117 -70.32 364.12 C -66.793 369.554 -62.435 375.043 -58.011 379.876 C -24.837 416.124 33.08 423.058 80.221 432.396 C 95.539 435.432 110.531 438.527 125.667 442.026 C 130.619 443.17 135.145 444.655 139.87 446.402 C 141.835 447.129 147.667 449.028 145.551 449.028 C 131.26 449.028 116.416 453.674 101.996 455.156 C 75.485 457.88 48.726 458.987 22.468 463.034 C 11.163 464.776 -0.498 466.591 -11.619 469.16 C -15.433 470.043 -19.365 471.326 -22.98 472.662 C -25.112 473.451 -29.607 476.538 -29.607 474.413 C -29.607 466.269 -37.804 454.012 -40.968 446.402 C -47.988 429.529 -53.566 412.111 -63.691 396.508 C -68.477 389.135 -75.65 386.004 -84.521 386.004 C -86.332 386.004 -92.062 385.068 -93.043 386.879 C -101.82 403.108 -81.951 411.238 -67.479 419.267 C -65.47 420.381 -52.33 427.2 -52.33 428.895" style="fill: none; stroke: rgb(165, 20, 187);"/>
  <path d="M -35.288 468.285 C -85.736 468.285 -136.498 465.028 -185.829 468.285 C -196.99 469.023 -210.889 473.538 -220.861 473.538 C -224.8 473.538 -229.147 471.787 -231.274 471.787 C -231.274 471.787 -231.274 474.413 -231.274 474.413" style="fill: none; stroke: rgb(165, 20, 187);"/>
  <path d="M -123.34 281.839 C -116.734 281.839 -100.518 284.856 -93.989 281.839 C -92.105 280.968 -86.415 276.586 -86.415 276.586 C -86.415 276.586 -86.255 266.376 -86.415 266.083 C -89.329 260.694 -93.232 257.941 -99.67 256.454 C -115.172 252.87 -127.938 263.832 -140.383 269.583 C -143.285 270.926 -142.276 276.586 -142.276 276.586" style="fill: none; stroke: rgb(165, 20, 187);"/>
  <path d="M -39.075 331.733 C -39.075 356.624 -9.068 366.074 12.998 372.873 C 66.443 389.344 123.078 379.876 177.742 379.876 C 170.533 379.876 164.46 392.179 161.646 397.384 C 151.81 415.57 147.444 429.123 147.444 449.028" style="fill: none; stroke: rgb(165, 20, 187);"/>
  <path d="M 3.53 327.356 C 20.986 327.356 26.253 328.273 26.253 344.863 C 26.253 346.626 27.46 354.253 26.253 355.367 C 24.784 356.727 18.679 363.555 18.679 366.747" style="fill: none; stroke: rgb(165, 20, 187);"/>
  <path d="M -51.384 217.938 C -25.504 217.938 0.375 217.938 26.253 217.938 C 33.684 217.938 42.787 219.263 49.924 217.063 C 52.331 216.322 54.845 215.804 57.498 215.313 C 59.381 214.965 63.179 212.663 63.179 214.438 C 63.179 218.476 55.527 223.499 52.763 226.693 C 48.079 232.108 44.44 239.631 41.403 245.95 C 34.936 259.401 28.424 285.23 33.828 300.221 C 40.33 318.256 61.83 333.908 83.062 329.983 C 114.963 324.084 79.751 287.092 67.912 278.338 C 65.674 276.682 52.763 266.083 52.763 266.083" style="fill: none; stroke: rgb(165, 20, 187);"/>
  <path d="M 68.859 238.947 C 84.008 238.947 99.157 238.947 114.306 238.947 C 121.693 238.947 130.033 239.969 137.029 237.196 C 145.821 233.713 154.099 228.424 161.646 223.191 C 162.881 222.335 166.381 217.063 166.381 217.063 C 166.381 217.938 162.118 223.63 161.646 224.066 C 156.06 229.23 149.222 232.926 143.657 238.072 C 130.079 250.623 122.827 271.375 122.827 288.841 C 122.827 297.71 122.267 305.584 130.402 311.6 C 135.425 315.315 142.294 316.992 148.39 318.603 C 153.094 319.845 158.659 320.353 163.539 320.353 C 170.134 320.353 177.38 320.687 181.528 316.852 C 183.519 315.011 180.511 306.89 179.635 305.472 C 174.078 296.482 169.827 288.527 161.646 280.963 C 158.479 278.035 152.581 274.377 148.39 273.085 C 146.864 272.615 143.657 272.21 143.657 272.21" style="fill: none; stroke: rgb(165, 20, 187);"/>
  <path d="M 130.402 238.072 C 127.622 238.072 124.425 230.66 122.827 228.443 C 122.673 228.228 119.647 223.191 119.987 223.191 C 149.644 223.191 178.928 223.523 208.039 217.063 C 235.936 210.873 262.88 201.568 291.357 197.807 C 303.58 196.192 318.062 194.215 329.229 189.053 C 330.761 188.345 338.911 183.999 339.644 184.676 C 342.703 187.505 327.916 203.278 326.389 204.809 C 304.602 226.63 281.481 252.606 270.528 280.963 C 258.476 312.162 250.644 342.314 250.644 375.5 C 250.644 387.297 249.008 399.965 252.537 411.389 C 256.512 424.246 263.6 437.285 270.528 449.028 C 273.276 453.686 276.157 457.702 279.049 462.159 C 279.161 462.331 285.676 469.563 285.676 468.285 C 285.676 462.744 272.046 456.209 266.74 453.404 C 246.778 442.859 228.179 437.679 205.198 435.023 C 196.779 434.05 188.182 434.148 179.635 434.148 C 179.53 434.148 174.901 436.773 174.901 436.773 C 174.901 434.73 174.901 432.689 174.901 430.646 C 174.901 430.646 174.901 431.813 174.901 432.396" style="fill: none; stroke: rgb(165, 20, 187);"/>
  <path d="M 173.007 223.191 C 173.007 223.191 167.973 237.176 167.327 238.072 C 161.099 246.708 161.353 259.889 157.858 269.583 C 156.597 273.085 157.406 281.382 155.018 283.589 C 152.245 286.153 155.797 299.909 156.912 301.972 C 157.415 302.902 159.752 307.224 159.752 307.224 C 159.752 307.224 162.593 311.6 162.593 311.6" style="fill: none; stroke: rgb(165, 20, 187);"/>
  <path d="M 62.233 210.06 C 63.179 210.06 85.475 209.579 83.062 211.812 C 65.19 228.334 54.599 246.934 44.243 266.083 C 42.835 268.686 44.243 275.471 44.243 278.338 C 44.243 292.575 49.433 306.996 63.179 313.35 C 68.37 315.751 77.416 327.356 82.115 327.356" style="fill: none; stroke: rgb(165, 20, 187);"/>
  <path d="M 338.697 186.427 C 339.644 186.427 346.667 186.681 347.218 186.427 C 351.69 184.359 357.279 181.868 362.367 180.299 C 364.189 179.738 368.048 179.424 368.048 179.424 C 299.923 271.232 279.737 303.803 283.782 329.983 C 284.964 337.633 290.072 344.135 293.25 350.99 C 296.568 358.148 301.684 366.665 307.452 371.998 C 325.29 388.49 346.515 402.725 369.941 411.389 C 377.473 414.174 385.572 415.33 392.665 417.515 C 395.006 418.238 398.065 418.597 400.239 419.267 C 401.472 419.648 405.326 420.142 404.026 420.142 C 371.655 420.142 345.306 424.701 315.026 435.898 C 306.864 438.917 295.598 440.731 291.357 444.651 C 290.523 445.422 285.676 455.156 285.676 455.156" style="fill: none; stroke: rgb(165, 20, 187);"/>
  <path d="M 316.919 261.705 C 322.136 265.653 321.654 276.362 321.654 282.714 C 321.654 302.103 324.828 324.068 320.708 343.112 C 319.619 348.144 318.084 359.542 315.026 362.37 C 314.644 362.723 313.134 367.622 313.134 367.622" style="fill: none; stroke: rgb(165, 20, 187);"/>
  <path d="M 354.793 203.934 C 365.114 194.391 381.013 187.646 393.611 181.175 C 409.557 172.985 425.206 164.923 442.844 160.167 C 497.445 145.443 548.614 162.793 595.278 189.053 C 611.995 198.46 628.033 207.193 640.725 221.44 C 667.819 251.857 677.193 295.809 660.607 332.608 C 648.391 359.716 618.826 375.668 591.492 387.754 C 571.223 396.716 551.133 407.543 529.003 412.264 C 516.046 415.028 502.419 414.015 489.238 414.015 C 464.59 414.015 440.059 413.139 415.388 413.139 C 414.373 413.139 396.451 413.139 396.451 413.139 C 396.451 413.139 397.397 414.015 397.397 414.015" style="fill: none; stroke: rgb(165, 20, 187);"/>
  <path d="M 419.174 237.196 C 422.286 237.196 430.118 233.418 434.323 232.819 C 456.869 229.613 486.57 230.834 509.119 232.819 C 541.117 235.637 583.586 247.029 598.118 276.586 C 603.691 287.921 602.853 301.279 602.853 313.35 C 602.853 328.863 602.393 339.915 590.545 351.866 C 578.094 364.422 557.339 370.836 540.364 376.375 C 514.96 384.664 485.453 383.378 458.94 383.378 C 452.922 383.378 445.972 384.297 440.004 383.378 C 439.349 383.276 433.376 381.628 433.376 381.628" style="fill: none; stroke: rgb(165, 20, 187);"/>
  <path d="M 381.302 251.202 C 385.287 251.202 404.111 248.655 406.866 251.202 C 416.588 260.191 431.587 268.998 436.217 281.839 C 440.468 293.629 440.004 307.113 440.004 319.478 C 440.004 329.887 441.481 340.05 435.269 349.239 C 427.613 360.565 414.086 371.633 402.132 379.001 C 398.629 381.16 389.823 386.879 389.823 386.879" style="fill: none; stroke: rgb(165, 20, 187);"/>
  <path d="M 431.483 242.449 C 437.553 242.449 444.468 241.532 450.418 242.449 C 462.233 244.269 475.157 258.218 483.556 265.207 C 494.658 274.444 506.878 282.837 512.907 295.844 C 521.469 314.314 507.564 340.174 493.97 352.741 C 482.634 363.223 468.741 375.784 454.205 382.503 C 452.675 383.21 439.057 387.754 439.057 387.754" style="fill: none; stroke: rgb(165, 20, 187);"/>
  <path d="M 198.511 77.656 L 198.511 77.656 Z" style="stroke: black; fill: none;"/>
  <path d="M 113.412 56.203 Z" style="stroke: black; fill: none;"/>
  <text x="3.999" y="44.761" transform="matrix(1.730227, 0, 0, 2.590632, -145.933151, -15.458958)" style="fill: rgb(5, 119, 68); font-family: Artifika; font-size: 36px; white-space: pre;">RESPONSIVE WEB DESIGN</text>
</svg>